<?xml version="1.0" encoding="utf-8"?>
<!-- Generator: Adobe Illustrator 23.0.0, SVG Export Plug-In . SVG Version: 6.00 Build 0)  -->
<svg version="1.1" id="Capa_1" xmlns="http://www.w3.org/2000/svg" xmlns:xlink="http://www.w3.org/1999/xlink" x="0px" y="0px"
	 viewBox="0 0 512 512" style="enable-background:new 0 0 512 512;" xml:space="preserve">
<style type="text/css">
	.st0{fill:#FFFFFF;}
</style>
<path class="st0" d="M497,162.5h-27.8l0.8-22.1h1.6c4.8,0,9.4-2.3,12.2-6.2c2.8-3.9,3.6-8.9,2.1-13.5l-21.5-64.4
	c-2-6.1-7.8-10.3-14.2-10.3H61.8c-6.5,0-12.2,4.1-14.2,10.3l-21.5,64.4c-1.5,4.6-0.8,9.6,2.1,13.5c2.8,3.9,7.3,6.2,12.2,6.2H42
	l0.8,22.1H15c-8.3,0-15,6.7-15,15c0,8.3,6.7,15,15,15h28.9L51.4,392c0.3,8.1,6.9,14.4,15,14.4h19.1c-1.7,4.7-2.6,9.7-2.6,15
	c0,24.8,20.2,45,45,45s45-20.2,45-45c0-5.3-0.9-10.3-2.6-15h171.3c-1.7,4.7-2.6,9.7-2.6,15c0,24.8,20.2,45,45,45
	c24.8,0,45-20.2,45-45c0-5.3-0.9-10.3-2.6-15h19.1c8.1,0,14.7-6.4,15-14.4l7.5-199.5H497c8.3,0,15-6.7,15-15
	C512,169.3,505.3,162.5,497,162.5z M72.6,76h366.8l11.5,34.4H61.1L72.6,76z M369.1,376.5H142.9V140.4h226.1V376.5z M72,140.4h41
	v236.1H80.8L72,140.4z M142.9,421.5c0,8.3-6.7,15-15,15c-8.3,0-15-6.7-15-15c0-8.3,6.7-15,15-15
	C136.2,406.5,142.9,413.2,142.9,421.5z M399.1,421.5c0,8.3-6.7,15-15,15c-8.3,0-15-6.7-15-15c0-8.3,6.7-15,15-15
	C392.3,406.5,399.1,413.2,399.1,421.5z M399.1,376.5V140.4h41l-8.9,236.1H399.1z"/>
</svg>
