<?xml version="1.0" encoding="utf-8"?>
<!-- Generator: Adobe Illustrator 23.0.0, SVG Export Plug-In . SVG Version: 6.00 Build 0)  -->
<svg version="1.1" id="Capa_1" xmlns="http://www.w3.org/2000/svg" xmlns:xlink="http://www.w3.org/1999/xlink" x="0px" y="0px"
	 viewBox="0 0 102.7 98.2" style="enable-background:new 0 0 102.7 98.2;" xml:space="preserve">
<style type="text/css">
	.st0{fill:#FFFFFF;stroke:#FFFFFF;stroke-width:3;stroke-miterlimit:10;}
</style>
<g>
	<path class="st0" d="M95.4,40.7c-0.1-0.3-0.5-0.7-0.7-0.9c-6.4-6.4-13.1-12.3-20.2-17.7c-4.4-3.4-8.7-6.4-13.6-8.7
		c-1.3-0.6-1.9-1.3-1.9-2.7c0.1-3.1-1.9-5.7-4.7-6.7c-2.8-0.9-5.7-0.2-7.8,2c-1.5,1.6-2,3.6-1.9,5.7c0,0.7-0.3,0.9-0.7,1
		c-2.3,1.3-4.5,2.3-6.6,3.6C26.5,23,16.9,31.3,7.6,39.9c-0.1,0.1-0.2,0.5-0.3,0.7C7.2,41,7.4,41.7,8,42c0.7,0.5,1.2,0.3,1.7-0.2
		c1.6-1.4,3.1-2.9,4.8-4.3c0.2-0.1,0.3-0.2,0.6-0.3c0.1,1.9,0.2,3.4,0.3,5.1c0.2,4,0.7,8,0.9,12c0.3,3.4,0.5,6.7,0.7,10.1
		c0.2,4.3,0.7,8.4,0.9,12.6c0.2,2.6,0.3,5,0.6,7.6c0.8,5.9,5.8,10.2,11.9,10.2H73c0.7,0,1.4,0,2.1-0.1c5.2-0.5,9.7-4.9,10.3-10
		c0.2-1.4,0.2-2.8,0.3-4.4h4.4c0.7,0,1.3-0.5,1.3-1.3c0.1-0.6-0.3-1.3-1.2-1.3h-4.4c0.9-13.3,1.9-26.3,2.8-39.5
		c0.3,0.2,0.5,0.3,0.6,0.2c1.3,1.3,2.6,2.4,3.8,3.6c0.6,0.5,1,0.6,1.7,0.2C95.4,41.9,95.5,41.4,95.4,40.7z M59.1,15.7
		c9.7,5,17.7,11.7,25.6,18.8H59.1V15.7z M44.8,15.6v18.8H18.1C26.6,27.4,34.9,20.5,44.8,15.6z M44.8,69.2v9.3c0,1,0.6,1.6,1.7,1.6
		H83c0.6,6.3-2.8,11.9-9.5,11.9H30.5c-5.5,0-9.4-3.8-9.7-9.2c-0.2-6-0.8-12.1-1.2-18.1c-0.2-4.1-0.6-8.3-0.8-12.3
		c-0.3-4.4-0.7-9-1-13.4c-0.1-0.6-0.1-1-0.1-1.7h27.3v10.6L44.8,69.2z M59.3,46.6v-9.5h27c-0.9,13.4-2,26.7-2.9,40.1H59.3v-8V46.6z
		 M56.6,69.2v8h-9.1v-8L47.7,48V11.2c0-2.9,2.1-5,4.7-4.8c2.4,0.1,4.3,2.2,4.3,5v24.8c0,3.3,0.1,6.6,0,9.9L56.6,69.2z"/>
</g>
</svg>
